P2
15 15
255
0 0 7 7 7 7 7 7 7 7 7 7 7 0 0 
0 7 7 7 0 0 0 0 0 0 0 7 7 7 0 
7 7 7 0 0 0 0 0 0 0 0 0 7 7 7 
7 7 0 0 0 0 0 0 0 0 0 0 0 7 7 
7 0 0 0 0 0 0 0 0 0 0 0 0 0 7 
7 0 0 0 0 0 0 0 0 0 0 0 0 0 7 
7 0 0 0 0 0 0 0 0 0 0 0 0 0 7 
7 0 0 0 0 0 0 0 0 0 0 0 0 0 7 
7 0 0 0 0 0 0 0 0 0 0 0 0 0 7 
7 0 0 0 0 0 0 0 0 0 0 0 0 0 7 
7 0 0 0 0 0 0 0 0 0 0 0 0 0 7 
7 7 0 0 0 0 0 0 0 0 0 0 0 7 7 
7 7 7 0 0 0 0 0 0 0 0 0 7 7 7 
0 7 7 7 0 0 0 0 0 0 0 7 7 7 0 
0 0 7 7 7 7 7 7 7 7 7 7 7 0 0 
